<svg xmlns="http://www.w3.org/2000/svg" viewBox="0 0 512 512" role="img" aria-labelledby="title desc">
  <title id="title">omicverse-notebook sticker</title>
  <desc id="desc">OmicVerse repository hex sticker for omicverse-notebook.</desc>
  <defs>
    <linearGradient id="bg" x1="112" y1="90" x2="398" y2="430" gradientUnits="userSpaceOnUse">
      <stop offset="0" stop-color="#050706"/>
      <stop offset=".58" stop-color="#020403"/>
      <stop offset="1" stop-color="#000000"/>
    </linearGradient>
  </defs>
  <polygon points="256,34 450,146 450,368 256,480 62,368 62,146" fill="#000000" opacity=".34"/>
  <polygon points="256,22 458,139 458,373 256,490 54,373 54,139" fill="url(#bg)" stroke="#0B0F0A" stroke-width="19" stroke-linejoin="round"/>
  <polygon points="256,22 458,139 458,373 256,490 54,373 54,139" fill="none" stroke="#E8FFE0" stroke-width="12" stroke-linejoin="round"/>
  <g opacity=".22" stroke="#37C96B" stroke-width="2.2">
    <path d="M112 166h288M100 222h312M100 278h312M112 334h288"/>
    <path d="M152 126v236M204 104v274M256 96v286M308 104v274M360 126v236"/>
  </g>
  
  <g id="motif">
    <rect x="127" y="140" width="248" height="176" rx="14" fill="#FFFFFF" opacity=".88"/>
    <rect x="151" y="168" width="200" height="31" rx="7" fill="#34C759" opacity=".82"/>
    <rect x="151" y="217" width="136" height="21" rx="5" fill="#24453c" opacity=".88"/>
    <rect x="151" y="252" width="178" height="21" rx="5" fill="#24453c" opacity=".88"/>
    <path d="M112 160h32M112 198h32M112 236h32M112 274h32" stroke="#FFD43B" stroke-width="7" stroke-linecap="round"/>
    <circle cx="326" cy="228" r="13" fill="#FF6B5F"/>
  </g>
  <path id="label" d="M314.65,377.54 L319.41,385.79 L315.06,388.30 L314.28,386.96 L311.41,381.99 Q310.40,380.24 309.94,379.62 Q309.48,378.99 309.10,378.79 Q308.60,378.51 308.03,378.53 Q307.46,378.55 306.90,378.87 Q305.55,379.65 305.38,381.14 Q305.21,382.64 306.28,384.49 L310.12,391.15 L305.80,393.65 L297.98,380.10 L302.30,377.61 L303.45,379.59 Q303.74,377.84 304.52,376.64 Q305.30,375.44 306.63,374.68 Q308.97,373.32 311.02,374.06 Q313.06,374.79 314.65,377.54 Z M323.65,368.97 Q322.21,369.81 322.05,371.27 Q321.90,372.74 323.02,374.69 Q324.14,376.64 325.50,377.24 Q326.85,377.84 328.29,377.00 Q329.70,376.19 329.85,374.72 Q330.01,373.25 328.88,371.30 Q327.76,369.36 326.41,368.76 Q325.07,368.16 323.65,368.97 Z M321.86,365.88 Q325.36,363.86 328.42,364.61 Q331.47,365.36 333.40,368.70 Q335.32,372.04 334.45,375.06 Q333.57,378.08 330.08,380.10 Q326.57,382.12 323.50,381.38 Q320.44,380.63 318.51,377.29 Q316.58,373.96 317.47,370.93 Q318.36,367.90 321.86,365.88 Z M335.13,353.53 L337.35,357.37 L341.81,354.79 L343.60,357.89 L339.14,360.47 L342.45,366.21 Q343.00,367.15 343.56,367.27 Q344.13,367.39 345.25,366.74 L347.47,365.46 L349.26,368.55 L345.54,370.70 Q342.98,372.18 341.29,371.73 Q339.61,371.27 338.13,368.71 L334.81,362.97 L332.65,364.21 L330.87,361.11 L333.02,359.87 L330.80,356.02 L335.13,353.53 Z M361.87,352.20 L362.58,353.43 L352.46,359.27 Q353.50,360.71 354.88,360.92 Q356.27,361.14 357.96,360.16 Q359.32,359.38 360.52,358.14 Q361.72,356.91 362.76,355.21 L364.69,358.55 Q363.49,360.02 362.12,361.20 Q360.76,362.39 359.22,363.27 Q355.54,365.40 352.43,364.70 Q349.31,364.01 347.36,360.64 Q345.45,357.32 346.36,354.27 Q347.26,351.22 350.77,349.19 Q353.96,347.35 356.99,348.16 Q360.01,348.98 361.87,352.20 Z M356.59,353.33 Q355.88,352.09 354.72,351.75 Q353.56,351.41 352.40,352.08 Q351.14,352.81 350.77,353.97 Q350.39,355.13 350.97,356.57 L356.59,353.33 Z M374.67,350.16 Q376.06,349.35 376.21,347.92 Q376.36,346.48 375.24,344.54 Q374.12,342.61 372.80,342.02 Q371.48,341.42 370.09,342.22 Q368.70,343.03 368.55,344.48 Q368.39,345.93 369.50,347.85 Q370.61,349.78 371.95,350.37 Q373.28,350.96 374.67,350.16 Z M366.73,343.05 Q366.95,341.35 367.71,340.16 Q368.47,338.97 369.89,338.15 Q372.39,336.71 375.15,337.77 Q377.91,338.83 379.71,341.96 Q381.52,345.09 381.06,348.01 Q380.60,350.93 378.10,352.37 Q376.68,353.19 375.27,353.26 Q373.86,353.32 372.28,352.65 L373.41,354.61 L369.08,357.11 L358.22,338.29 L362.54,335.79 L366.73,343.05 Z M387.03,332.38 Q385.59,333.21 385.44,334.68 Q385.28,336.15 386.40,338.10 Q387.52,340.04 388.88,340.64 Q390.23,341.24 391.67,340.41 Q393.09,339.59 393.24,338.13 Q393.39,336.66 392.26,334.71 Q391.14,332.77 389.79,332.17 Q388.45,331.56 387.03,332.38 Z M385.25,329.29 Q388.74,327.27 391.80,328.02 Q394.85,328.77 396.78,332.11 Q398.70,335.45 397.83,338.47 Q396.95,341.49 393.46,343.51 Q389.95,345.53 386.88,344.79 Q383.82,344.04 381.89,340.70 Q379.96,337.37 380.85,334.34 Q381.74,331.31 385.25,329.29 Z M404.05,322.56 Q402.61,323.39 402.45,324.86 Q402.29,326.33 403.42,328.27 Q404.54,330.22 405.89,330.82 Q407.24,331.42 408.68,330.59 Q410.10,329.77 410.25,328.31 Q410.40,326.83 409.28,324.89 Q408.16,322.94 406.81,322.34 Q405.46,321.74 404.05,322.56 Z M402.26,319.46 Q405.76,317.44 408.81,318.20 Q411.87,318.95 413.79,322.28 Q415.72,325.62 414.84,328.65 Q413.97,331.67 410.47,333.68 Q406.97,335.71 403.90,334.96 Q400.83,334.22 398.90,330.88 Q396.98,327.54 397.87,324.52 Q398.75,321.49 402.26,319.46 Z M409.98,308.41 L414.30,305.91 L420.22,316.15 L422.33,308.31 L427.36,305.40 L424.33,315.44 L435.70,318.65 L430.45,321.68 L421.91,319.08 L425.17,324.73 L420.84,327.23 L409.98,308.41 Z" fill="#FFFFFF"/>
</svg>
